<svg width="800" height="800" viewBox="0 0 48 48" xml:space="preserve" xmlns="http://www.w3.org/2000/svg"><path d="M32.615 10.883V8.615A8.614 8.614 0 0 0 24 0a8.615 8.615 0 0 0-8.615 8.615v2.268H12.33V28h23.34V10.883h-3.055zm-6.183 11.832h-4.734l1.175-2.963a2.522 2.522 0 0 1-1.406-2.257 2.534 2.534 0 1 1 5.067 0c0 .98-.561 1.82-1.375 2.243l1.273 2.977zm-7.42-11.832V8.615a4.988 4.988 0 0 1 9.976 0v2.268h-9.976zM0 32v16h48V32H0zm44 12H4v-8h40v8z" fill="#FFF"/><path fill="#FFF" d="M11 38.5h6v3h-6zm10 0h6v3h-6zm10 0h6v3h-6z"/></svg>