<svg width="800" height="800" viewBox="0 0 24 24" xmlns="http://www.w3.org/2000/svg"><path style="fill:none;stroke:#000;stroke-linecap:round;stroke-linejoin:round;stroke-width:2" d="M14.05 17.1 16 21l1.98-2.03L21 19l-2.81-5.58v-.01M9.95 17.1 8 21l-1.98-2.03L3 19l2.81-5.58v-.01"/><path d="M19.28 10c0 .76-.67 1.4-.89 2.08s-.07 1.61-.5 2.2-1.35.72-1.89 1.16-1 1.26-1.7 1.49-1.49-.21-2.25-.21-1.57.43-2.25.21-1.11-1.07-1.7-1.49-1.51-.57-1.94-1.16-.27-1.5-.5-2.2-.94-1.32-.94-2.08.67-1.4.89-2.08.07-1.61.5-2.2S7.46 5 8.05 4.56 9 3.3 9.75 3.07s1.49.21 2.25.21 1.57-.43 2.25-.21S15.36 4.14 16 4.56s1.51.57 1.94 1.16.27 1.5.5 2.2.84 1.32.84 2.08ZM12 7a3 3 0 1 0 3 3 3 3 0 0 0-3-3Z" style="fill:none;stroke:#000;stroke-linecap:round;stroke-linejoin:round;stroke-width:2"/></svg>