<svg baseProfile="tiny" version="1.2" xmlns="http://www.w3.org/2000/svg"><path d="M-200-10 0 190l10 10-200-190zm10 0L10 190l10 10-200-190zm10 0L20 190l10 10-200-190zm10 0L30 190l10 10-200-190zm10 0L40 190l10 10-200-190zm10 0L50 190l10 10-200-190zm10 0L60 190l10 10-200-190zm10 0L70 190l10 10-200-190zm10 0L80 190l10 10-200-190zm10 0L90 190l10 10-200-190zm10 0 200 200 10 10L-90 10zm10 0 200 200 10 10L-80 10zm10 0 200 200 10 10L-70 10zm10 0 200 200 10 10L-60 10zm10 0 200 200 10 10L-50 10zm10 0 200 200 10 10L-40 10zm10 0 200 200 10 10L-30 10zm10 0 200 200 10 10L-20 10zm10 0 200 200 10 10L-10 10zm10 0 200 200 10 10L0 10zm10 0 200 200 10 10L10 10zm10 0 200 200 10 10L20 10zm10 0 200 200 10 10L30 10zm10 0 200 200 10 10L40 10zm10 0 200 200 10 10L50 10zm10 0 200 200 10 10L60 10zm10 0 200 200 10 10L70 10zm10 0 200 200 10 10L80 10zm10 0 200 200 10 10L90 10zm10 0 200 200 10 10L100 10zm10 0 200 200 10 10L110 10zm10 0 200 200 10 10L120 10zm10 0 200 200 10 10L130 10zm10 0 200 200 10 10L140 10zm10 0 200 200 10 10L150 10zm10 0 200 200 10 10L160 10zm10 0 200 200 10 10L170 10zm10 0 200 200 10 10L180 10zm10 0 200 200 10 10L190 10zm10 0 200 200 10 10L200 10z"/></svg>